#!OML:ASF H:\Male1\Project 1\Capture day 1\Session 1\Male1.ASF
:FULLY-SPECIFIED
:DEGREES
376
root 22.4673 15.299 0.688437 191.939 -88.314 -191.882
lowerback 7.2247 2.11899 2.31112
upperback 5.69945 2.75218 -0.697783
thorax 1.99299 1.38335 -2.15952
lowerneck -10.0673 1.38431 4.66755
upperneck 20.7107 0.768749 -0.205669
head 8.09758 0.586187 -0.791002
rclavicle -2.7805e-014 -5.96354e-015
rhumerus -33.4285 10.2465 -88.9397
rradius 38.1205
rwrist -20.6689
rhand -14.1807 -1.84735
rfingers 7.12502
rthumb 11.9548 -31.486
lclavicle -2.7805e-014 -5.96354e-015
lhumerus -35.5221 -1.89834 82.0348
lradius 42.167
lwrist 4.8113
lhand -21.8232 5.95705
lfingers 7.12502
lthumb 4.57953 35.8876
rfemur -3.52336 11.7199 28.4076
rtibia 23.7127
rfoot -32.3496 -27.9475
rtoes -11.5653
lfemur -29.9138 -8.83568 -20.4681
ltibia 62.1149
lfoot -21.4 7.24716
ltoes -20.5777
377
root 22.4819 15.286 0.703197 193.202 -88.2092 -192.738
lowerback 6.59824 2.0874 2.14107
upperback 5.5652 2.70437 -0.69168
thorax 2.18723 1.36042 -2.03397
lowerneck -10.1296 1.44926 4.75689
upperneck 21.26 0.823501 -0.27224
head 8.29612 0.612356 -0.824742
rclavicle 2.23633e-015 5.96354e-015
rhumerus -33.5755 9.92859 -88.9711
rradius 37.8758
rwrist -20.5489
rhand -14.1486 -1.99324
rfingers 7.12502
rthumb 11.9858 -31.6301
lclavicle 2.23633e-015 5.96354e-015
lhumerus -35.0388 -1.79548 82.0823
lradius 40.8673
lwrist 4.17118
lhand -20.678 6.23446
lfingers 7.12502
lthumb 5.68522 36.1382
rfemur -4.51727 11.9554 28.2093
rtibia 24.6822
rfoot -32.8709 -27.7302
rtoes -11.494
lfemur -27.9611 -9.91476 -20.7481
ltibia 58.7512
lfoot -21.9257 8.68657
ltoes -19.946
378
root 22.4946 15.2744 0.717646 194.451 -88.0926 -193.608
lowerback 6.03867 2.06747 1.94583
upperback 5.43814 2.67265 -0.692027
thorax 2.35312 1.34379 -1.90482
lowerneck -10.1828 1.515 4.85388
upperneck 21.7327 0.883036 -0.343229
head 8.46871 0.640729 -0.860651
rclavicle 1.87106e-014 9.24349e-015
rhumerus -33.715 9.60619 -89.0053
rradius 37.6523
rwrist -20.4841
rhand -14.1715 -2.14496
rfingers 7.12502
rthumb 11.9637 -31.7831
lclavicle 1.87106e-014 9.24349e-015
lhumerus -34.5623 -1.6744 82.1408
lradius 39.5829
lwrist 3.51909
lhand -19.7 6.38108
lfingers 7.12502
lthumb 6.62943 36.2573
rfemur -5.42687 12.1866 28.0111
rtibia 25.5681
rfoot -33.3415 -27.538
rtoes -11.5055
lfemur -26.1535 -11.0112 -21.0511
ltibia 55.5118
lfoot -22.4826 10.1306
ltoes -20.4386
379
root 22.506 15.2628 0.732383 195.143 -87.9605 -193.942
lowerback 5.54403 2.05657 1.74168
upperback 5.31661 2.65427 -0.692325
thorax 2.48998 1.33258 -1.77393
lowerneck -10.211 1.57018 4.9235
upperneck 22.1128 0.933864 -0.392002
head 8.6057 0.66469 -0.885245
rclavicle 1.36416e-014 8.89561e-015
rhumerus -33.8464 9.30708 -89.044
rradius 37.4564
rwrist -20.4673
rhand -14.2419 -2.27181
rfingers 7.12502
rthumb 11.8959 -31.9139
lclavicle 1.36416e-014 8.89561e-015
lhumerus -34.1153 -1.51068 82.2041
lradius 38.3644
lwrist 2.82663
lhand -18.8487 6.52887
lfingers 7.12502
lthumb 7.45116 36.3776
rfemur -6.26532 12.3766 27.8207
rtibia 26.3655
rfoot -33.7382 -27.3557
rtoes -11.7067
lfemur -24.4982 -12.0825 -21.3544
ltibia 52.4616
lfoot -23.0041 11.5274
ltoes -21.6635
380
root 22.5162 15.2526 0.747787 194.536 -87.8124 -193.008
lowerback 5.12504 2.05244 1.56847
upperback 5.20308 2.6471 -0.688095
thorax 2.59569 1.32696 -1.65893
lowerneck -10.2342 1.62815 4.97805
upperneck 22.4178 0.993604 -0.430938
head 8.71682 0.692561 -0.902771
rclavicle -1.36043e-014 -3.8763e-015
rhumerus -33.9676 9.0502 -89.0946
rradius 37.2983
rwrist -20.4893
rhand -14.3216 -2.37403
rfingers 7.12502
rthumb 11.819 -32.0205
lclavicle -1.36043e-014 -3.8763e-015
lhumerus -33.7094 -1.2889 82.2593
lradius 37.2528
lwrist 2.09903
lhand -18.1472 6.60116
lfingers 7.12502
lthumb 8.12828 36.4248
rfemur -7.0095 12.4944 27.665
rtibia 27.0369
rfoot -34.0177 -27.1725
rtoes -12.1474
lfemur -23.012 -13.0718 -21.6207
ltibia 49.6571
lfoot -23.4271 12.7896
ltoes -22.9586
381
root 22.5257 15.2436 0.764187 192.18 -87.6485 -190.365
lowerback 4.79197 2.05504 1.46577
upperback 5.10256 2.65118 -0.676326
thorax 2.67117 1.32824 -1.57891
lowerneck -10.2528 1.68258 5.00947
upperneck 22.6577 1.05195 -0.449293
head 8.8049 0.719907 -0.909292
rclavicle 1.37037e-014 -3.97569e-016
rhumerus -34.0698 8.84259 -89.1612
rradius 37.1754
rwrist -20.5365
rhand -14.3648 -2.45146
rfingers 7.12502
rthumb 11.7773 -32.1003
lclavicle 1.37037e-014 -3.97569e-016
lhumerus -33.3513 -1.01018 82.3004
lradius 36.2802
lwrist 1.39058
lhand -17.6287 6.63468
lfingers 7.12502
lthumb 8.62862 36.4383
rfemur -7.64194 12.5442 27.5789
rtibia 27.5694
rfoot -34.1612 -26.9923
rtoes -12.7697
lfemur -21.677 -13.9145 -21.824
ltibia 47.1473
lfoot -23.7118 13.8825
ltoes -23.5711
382
root 22.5339 15.2376 0.781589 188.511 -87.474 -186.463
lowerback 4.54572 2.05796 1.43508
upperback 5.02408 2.65677 -0.655514
thorax 2.72458 1.33164 -1.53267
lowerneck -10.2746 1.736 5.01874
upperneck 22.8497 1.11212 -0.451483
head 8.8771 0.747932 -0.90611
rclavicle -9.03228e-015 2.65874e-015
rhumerus -34.1394 8.70185 -89.241
rradius 37.0819
rwrist -20.597
rhand -14.3223 -2.50752
rfingers 7.12502
rthumb 11.8183 -32.154
lclavicle -9.03228e-015 2.65874e-015
lhumerus -33.0325 -0.664994 82.3268
lradius 35.4504
lwrist 0.7417
lhand -17.3188 6.6041
lfingers 7.12502
lthumb 8.92773 36.3952
rfemur -8.12894 12.5733 27.5734
rtibia 27.94
rfoot -34.2001 -26.8385
rtoes -13.3998
lfemur -20.4911 -14.6094 -21.9627
ltibia 44.9566
lfoot -23.8793 14.7473
ltoes -22.9247
383
root 22.541 15.2336 0.800092 184.521 -87.2934 -182.294
lowerback 4.37398 2.05783 1.44755
upperback 4.9678 2.65838 -0.634951
thorax 2.76161 1.33377 -1.51309
lowerneck -10.3167 1.79994 5.0568
upperneck 23.03 1.18829 -0.483048
head 8.95016 0.783079 -0.915788
rclavicle -1.5148e-014 7.45443e-017
rhumerus -34.1696 8.62619 -89.3328
rradius 37.0024
rwrist -20.652
rhand -14.1981 -2.54421
rfingers 7.12502
rthumb 11.9381 -32.1838
lclavicle -1.5148e-014 7.45443e-017
lhumerus -32.7438 -0.270452 82.3413
lradius 34.7494
lwrist 0.182971
lhand -17.1905 6.57677
lfingers 7.12502
lthumb 9.05154 36.3626
rfemur -8.47358 12.6381 27.6225
rtibia 28.163
rfoot -34.1966 -26.7308
rtoes -13.8952
lfemur -19.441 -15.1759 -22.0733
ltibia 43.0875
lfoot -23.9812 15.4557
ltoes -21.0908
384
root 22.5468 15.2321 0.819544 181.071 -87.1109 -178.725
lowerback 4.28114 2.05956 1.46596
upperback 4.92803 2.6622 -0.630797
thorax 2.773 1.33684 -1.51642
lowerneck -10.3409 1.86288 5.14948
upperneck 23.1891 1.26277 -0.551603
head 9.01358 0.818127 -0.947417
rclavicle -2.48326e-014 5.09386e-016
rhumerus -34.1629 8.58295 -89.4391
rradius 36.9156
rwrist -20.6756
rhand -14.0373 -2.57241
rfingers 7.12502
rthumb 12.0931 -32.2029
lclavicle -2.48326e-014 5.09386e-016
lhumerus -32.4866 0.117995 82.3505
lradius 34.1607
lwrist -0.249029
lhand -17.2039 6.58203
lfingers 7.12502
lthumb 9.03857 36.3684
rfemur -8.68147 12.786 27.6897
rtibia 28.2697
rfoot -34.2053 -26.6826
rtoes -14.172
lfemur -18.5282 -15.6906 -22.1796
ltibia 41.5253
lfoot -24.1029 15.9937
ltoes -18.0335
